<?xml version="1.0" encoding="UTF-8"?><svg id="Layer_1" xmlns="http://www.w3.org/2000/svg" viewBox="0 0 681.59 138.81"><defs><style>.cls-1{fill:#c3a34e;}</style></defs><g id="g8"><g id="g10"><path id="path12" class="cls-1" d="M420.83,0c1.63,1.34,45.51,103.13,60.18,136.43h-38.05c-1.73-3.92-3.45-7.84-5.19-11.76h-5.94c-1.98-3.63-6.93-1.4-7.96-4.04-1.19-3.03.78-9.85,1.26-12.77-.07-2.36-.16-4.72-.25-7.08.49-2.72,1.16-5.38,1.65-8.48.44-2.81-.64-5.4-.89-7.71.98-.23,1.94-.66,2.41-1.39,1.03-1.62,2.8-10.29,1.76-12.89-.97-2.43-4.91-1.99-6.19-4.05-1.66-2.64,3.49-7.88-1.51-9.73-.85-.31-2.14-.32-2.92.12-3.14,1.84-.24,6.75-.88,9.61-1.58,1.12-5.12,2.07-6.06,3.8-1.27,2.31.62,11.6,1.65,13.14.46.72,1.42,1.17,2.4,1.39-.26,2.29-1.32,4.91-.88,7.71.48,3.12,1.16,5.75,1.63,8.48-.07,2.36-.15,4.72-.25,7.08.5,2.99,2.45,9.65,1.27,12.77-.9,2.35-4.28.93-6.45,2.02-.55.68-1.1,1.35-1.65,2.02h-5.94c-1.73,3.93-3.45,7.85-5.19,11.76h-37.92c19.97-45.47,39.95-90.95,59.93-136.43"/><path id="path14" class="cls-1" d="M66.66,127.84c-30.78,0-55.69-24.94-55.69-55.71s24.91-55.71,55.69-55.71,55.71,24.94,55.71,55.71-24.96,55.71-55.71,55.71M66.66,5.47C29.83,5.47,0,35.31,0,72.13s29.83,66.68,66.66,66.68,66.68-29.84,66.68-66.68S103.49,5.47,66.66,5.47"/><path id="path16" class="cls-1" d="M517.68,18.15l-10.99.02v47.87h12.05c7.98,0,15.09-.41,21.73-5.36,4.86-3.66,7.77-10.63,7.77-18.71,0-7.59-3.25-17.17-12.39-21.24-5.04-2.38-11.48-2.59-18.18-2.59M556.44,136.43l-37.58-59.35h-12.16v59.35h-11.37V7.22h20.92c9.62,0,20.52,0,29.7,6.65,8.73,6.16,13.38,16.01,13.38,28.41s-5.13,22.39-13.68,28.16c-4.11,2.77-8.87,4.61-14.43,5.65l38.19,60.32h-12.96"/><path id="path18" class="cls-1" d="M358.59,109.65l-7.09,16.09s-14.73,13.07-40.45,13.07c-18.19,0-35.27-7.09-48.14-19.91-26.54-26.56-26.54-69.74,0-96.27,12.86-12.82,29.95-19.94,48.14-19.94,25.62,0,40.35,12.96,40.35,12.96l7.06,16.05s-20.34-17.79-47.42-17.79c-15.08,0-29.41,5.91-40.21,16.66-10.71,10.75-16.64,25.01-16.64,40.19s5.94,29.46,16.64,40.16v.05c10.8,10.73,25.13,16.64,40.21,16.64,27.3,0,47.54-17.97,47.54-17.97"/><path id="path20" class="cls-1" d="M188.95,138.81c-15.61,0-29.61-7.9-37.41-21.14l-.84-1.46,5.38-12.09,3.25,5.19c7.88,12.65,17.12,18.31,29.98,18.31,16.69,0,29.29-11.22,29.29-26.1,0-14.01-15.49-21.89-25.77-27.09-.98-.5-1.94-1-2.82-1.46-.87-.45-1.92-.95-3.08-1.47-9.52-4.57-29.34-14.04-29.34-33.98,0-18.62,14.31-32.09,33.85-32.09,11.76,0,20.39,4.95,23.3,6.88,0,.03,6.05,13.72,6.05,13.72,0,0-15.32-9.42-29.84-9.42-12.73,0-21.98,8.79-21.98,20.91s12.87,18.83,24.23,24.51l2.13,1.04c.81.43,1.72.86,2.69,1.34,11.28,5.48,32.3,15.69,32.3,37.79,0,20.53-18.18,36.61-41.37,36.61"/><path id="path22" class="cls-1" d="M622.76,138.81c-15.61,0-29.61-7.9-37.41-21.14l-.84-1.46,5.38-12.09,3.25,5.19c7.88,12.65,17.12,18.31,29.98,18.31,16.69,0,29.29-11.22,29.29-26.1,0-14.01-15.49-21.89-25.77-27.09-.98-.5-1.94-1-2.82-1.46-.87-.45-1.92-.95-3.08-1.47-9.53-4.57-29.34-14.04-29.34-33.98,0-18.62,14.31-32.09,33.85-32.09,11.76,0,20.39,4.95,23.3,6.88,0,.03,6.05,13.72,6.05,13.72,0,0-15.32-9.42-29.84-9.42-12.73,0-21.98,8.79-21.98,20.91s12.87,18.83,24.23,24.51l2.13,1.04c.81.43,1.72.86,2.69,1.34,11.28,5.48,32.3,15.69,32.3,37.79,0,20.53-18.18,36.61-41.37,36.61"/><path id="path24" class="cls-1" d="M676.14,137.06c-2.64,0-4.71-2.06-4.71-4.71s2.12-4.68,4.71-4.68,4.68,2.09,4.68,4.68-2.06,4.71-4.68,4.71ZM676.14,126.91c-3.02,0-5.48,2.44-5.48,5.44s2.46,5.47,5.48,5.47,5.44-2.45,5.44-5.47-2.44-5.44-5.44-5.44"/><path id="path26" class="cls-1" d="M675.09,131.94v-1.86h.78c.26,0,.54,0,.76.11.34.15.46.52.46.81s-.12.56-.33.73c-.22.19-.51.2-.85.2h-.82ZM677.15,132.51c.51-.31.79-.83.79-1.49s-.24-1.12-.68-1.44c-.46-.34-.99-.34-1.45-.34h-1.59v6.24h.87v-2.72h.63l1.66,2.71.02.02h.93l-1.63-2.81c.14-.04.3-.1.45-.18h0"/></g></g></svg>